<svg width="32" height="32" viewBox="0 0 48 48" fill="none" xmlns="http://www.w3.org/2000/svg">
  <defs>
    <linearGradient id="bg" x1="0%" y1="0%" x2="100%" y2="100%">
      <stop offset="0%" stop-color="#FF6B35" />
      <stop offset="50%" stop-color="#F7931E" />
      <stop offset="100%" stop-color="#FF4E50" />
    </linearGradient>
    <linearGradient id="rocket" x1="0%" y1="0%" x2="0%" y2="100%">
      <stop offset="0%" stop-color="#FFFFFF" />
      <stop offset="100%" stop-color="#F0F0F0" />
    </linearGradient>
    <linearGradient id="flame" x1="0%" y1="0%" x2="0%" y2="100%">
      <stop offset="0%" stop-color="#FFD93D" />
      <stop offset="100%" stop-color="#FF4E50" />
    </linearGradient>
  </defs>
  <circle cx="24" cy="24" r="22" fill="url(#bg)" />
  <circle cx="24" cy="24" r="18" fill="none" stroke="rgba(255,255,255,0.3)" stroke-width="1.5" />
  <path d="M24 8C24 8 18 16 18 26C18 30 20 33 24 33C28 33 30 30 30 26C30 16 24 8 24 8Z" fill="url(#rocket)" />
  <circle cx="24" cy="20" r="3.5" fill="#1E3A5F" />
  <circle cx="24" cy="19.5" r="2" fill="#4A90D9" opacity="0.6" />
  <path d="M18 28L14 32L18 30Z" fill="url(#rocket)" />
  <path d="M30 28L34 32L30 30Z" fill="url(#rocket)" />
  <path d="M21 33C21 33 22 38 24 40C26 38 27 33 27 33C27 33 25.5 35 24 35C22.5 35 21 33 21 33Z" fill="url(#flame)" />
  <circle cx="12" cy="14" r="1" fill="white" opacity="0.8" />
  <circle cx="36" cy="18" r="0.8" fill="white" opacity="0.6" />
</svg>
